<svg width="125" height="24" viewBox="0 0 125 24" fill="none" xmlns="http://www.w3.org/2000/svg">
<path d="M8 20H16V17C16 15.9 15.6083 14.9583 14.825 14.175C14.0417 13.3917 13.1 13 12 13C10.9 13 9.95833 13.3917 9.175 14.175C8.39167 14.9583 8 15.9 8 17V20ZM19 22H5C4.71667 22 4.479 21.904 4.287 21.712C4.09567 21.5207 4 21.2833 4 21C4 20.7167 4.09567 20.4793 4.287 20.288C4.479 20.096 4.71667 20 5 20H6V17C6 15.9833 6.23767 15.029 6.713 14.137C7.18767 13.2457 7.85 12.5333 8.7 12C7.85 11.4667 7.18767 10.754 6.713 9.862C6.23767 8.97067 6 8.01667 6 7V4H5C4.71667 4 4.479 3.904 4.287 3.712C4.09567 3.52067 4 3.28333 4 3C4 2.71667 4.09567 2.479 4.287 2.287C4.479 2.09567 4.71667 2 5 2H19C19.2833 2 19.5207 2.09567 19.712 2.287C19.904 2.479 20 2.71667 20 3C20 3.28333 19.904 3.52067 19.712 3.712C19.5207 3.904 19.2833 4 19 4H18V7C18 8.01667 17.7627 8.97067 17.288 9.862C16.8127 10.754 16.15 11.4667 15.3 12C16.15 12.5333 16.8127 13.2457 17.288 14.137C17.7627 15.029 18 15.9833 18 17V20H19C19.2833 20 19.5207 20.096 19.712 20.288C19.904 20.4793 20 20.7167 20 21C20 21.2833 19.904 21.5207 19.712 21.712C19.5207 21.904 19.2833 22 19 22Z" fill="#7E7E7E"/>
<path d="M39.352 15.964H42.768V17H38.078V7.242H39.352V15.964ZM50.545 17.098C49.6396 17.098 48.8136 16.888 48.067 16.468C47.3203 16.0387 46.7276 15.446 46.289 14.69C45.8596 13.9247 45.645 13.066 45.645 12.114C45.645 11.162 45.8596 10.308 46.289 9.552C46.7276 8.78667 47.3203 8.194 48.067 7.774C48.8136 7.34467 49.6396 7.13 50.545 7.13C51.4596 7.13 52.2903 7.34467 53.037 7.774C53.7836 8.194 54.3716 8.782 54.801 9.538C55.2303 10.294 55.445 11.1527 55.445 12.114C55.445 13.0753 55.2303 13.934 54.801 14.69C54.3716 15.446 53.7836 16.0387 53.037 16.468C52.2903 16.888 51.4596 17.098 50.545 17.098ZM50.545 15.992C51.2263 15.992 51.8376 15.8333 52.379 15.516C52.9296 15.1987 53.359 14.746 53.667 14.158C53.9843 13.57 54.143 12.8887 54.143 12.114C54.143 11.33 53.9843 10.6487 53.667 10.07C53.359 9.482 52.9343 9.02933 52.393 8.712C51.8516 8.39467 51.2356 8.236 50.545 8.236C49.8543 8.236 49.2383 8.39467 48.697 8.712C48.1556 9.02933 47.7263 9.482 47.409 10.07C47.101 10.6487 46.947 11.33 46.947 12.114C46.947 12.8887 47.101 13.57 47.409 14.158C47.7263 14.746 48.1556 15.1987 48.697 15.516C49.2476 15.8333 49.8636 15.992 50.545 15.992ZM64.8948 14.83H60.6388L59.8548 17H58.5108L62.0388 7.298H63.5088L67.0228 17H65.6788L64.8948 14.83ZM64.5308 13.794L62.7668 8.866L61.0028 13.794H64.5308ZM73.5984 7.242C74.6624 7.242 75.5818 7.44267 76.3564 7.844C77.1404 8.236 77.7378 8.80067 78.1484 9.538C78.5684 10.2753 78.7784 11.1433 78.7784 12.142C78.7784 13.1407 78.5684 14.0087 78.1484 14.746C77.7378 15.474 77.1404 16.034 76.3564 16.426C75.5818 16.8087 74.6624 17 73.5984 17H70.5604V7.242H73.5984ZM73.5984 15.95C74.8584 15.95 75.8198 15.6187 76.4824 14.956C77.1451 14.284 77.4764 13.346 77.4764 12.142C77.4764 10.9287 77.1404 9.98133 76.4684 9.3C75.8058 8.61867 74.8491 8.278 73.5984 8.278H71.8344V15.95H73.5984ZM83.7329 7.242V17H82.4589V7.242H83.7329ZM95.5762 17H94.3022L89.1782 9.23V17H87.9042V7.228H89.1782L94.3022 14.984V7.228H95.5762V17ZM107.14 10.07C106.869 9.50067 106.477 9.062 105.964 8.754C105.451 8.43667 104.853 8.278 104.172 8.278C103.491 8.278 102.875 8.43667 102.324 8.754C101.783 9.062 101.353 9.51 101.036 10.098C100.728 10.6767 100.574 11.3487 100.574 12.114C100.574 12.8793 100.728 13.5513 101.036 14.13C101.353 14.7087 101.783 15.1567 102.324 15.474C102.875 15.782 103.491 15.936 104.172 15.936C105.124 15.936 105.908 15.6513 106.524 15.082C107.14 14.5127 107.499 13.7427 107.602 12.772H103.71V11.736H108.96V12.716C108.885 13.5187 108.633 14.256 108.204 14.928C107.775 15.5907 107.21 16.118 106.51 16.51C105.81 16.8927 105.031 17.084 104.172 17.084C103.267 17.084 102.441 16.874 101.694 16.454C100.947 16.0247 100.355 15.432 99.9159 14.676C99.4866 13.92 99.2719 13.066 99.2719 12.114C99.2719 11.162 99.4866 10.308 99.9159 9.552C100.355 8.78667 100.947 8.194 101.694 7.774C102.441 7.34467 103.267 7.13 104.172 7.13C105.208 7.13 106.123 7.38667 106.916 7.9C107.719 8.41333 108.302 9.13667 108.666 10.07H107.14ZM113.05 17.084C112.808 17.084 112.602 17 112.434 16.832C112.266 16.664 112.182 16.4587 112.182 16.216C112.182 15.9733 112.266 15.768 112.434 15.6C112.602 15.432 112.808 15.348 113.05 15.348C113.284 15.348 113.48 15.432 113.638 15.6C113.806 15.768 113.89 15.9733 113.89 16.216C113.89 16.4587 113.806 16.664 113.638 16.832C113.48 17 113.284 17.084 113.05 17.084ZM117.99 17.084C117.747 17.084 117.542 17 117.374 16.832C117.206 16.664 117.122 16.4587 117.122 16.216C117.122 15.9733 117.206 15.768 117.374 15.6C117.542 15.432 117.747 15.348 117.99 15.348C118.223 15.348 118.419 15.432 118.578 15.6C118.746 15.768 118.83 15.9733 118.83 16.216C118.83 16.4587 118.746 16.664 118.578 16.832C118.419 17 118.223 17.084 117.99 17.084ZM122.929 17.084C122.687 17.084 122.481 17 122.313 16.832C122.145 16.664 122.061 16.4587 122.061 16.216C122.061 15.9733 122.145 15.768 122.313 15.6C122.481 15.432 122.687 15.348 122.929 15.348C123.163 15.348 123.359 15.432 123.517 15.6C123.685 15.768 123.769 15.9733 123.769 16.216C123.769 16.4587 123.685 16.664 123.517 16.832C123.359 17 123.163 17.084 122.929 17.084Z" fill="#7E7E7E"/>
</svg>
